<svg width="20" height="20" viewBox="0 0 20 20" fill="none" xmlns="http://www.w3.org/2000/svg">
<path d="M4.44444 9H6.66667V11H4.44444V9ZM17.7778 2H16.6667V0H14.4444V2H5.55556V0H3.33333V2H2.22222C0.988889 2 0.0111111 2.9 0.0111111 4L0 18C0 18.5304 0.234126 19.0391 0.650874 19.4142C1.06762 19.7893 1.63285 20 2.22222 20H17.7778C19 20 20 19.1 20 18V4C20 2.9 19 2 17.7778 2ZM17.7778 18H2.22222V8H17.7778V18ZM17.7778 6H2.22222V4H17.7778V6ZM13.3333 9H15.5556V11H13.3333V9ZM8.88889 9H11.1111V11H8.88889V9Z" fill="#171A1F"/>
</svg>
