<svg width="36" height="49" viewBox="0 0 36 49" fill="none" xmlns="http://www.w3.org/2000/svg">
<path d="M11.5811 37.7083C11.5811 37.7083 9.71899 38.7918 12.9081 39.1575C16.7721 39.5989 18.7467 39.5356 23.0038 38.7309C23.0038 38.7309 24.1252 39.4321 25.6885 40.0399C16.142 44.1297 4.08383 39.8028 11.5811 37.7083ZM10.4139 32.3704C10.4139 32.3704 8.32485 33.9168 11.5166 34.2473C15.6444 34.6735 18.9034 34.7083 24.5456 33.6223C24.5456 33.6223 25.3241 34.4133 26.5502 34.8454C15.0104 38.2204 2.15727 35.111 10.4139 32.3704Z" fill="#0074BD"/>
<path d="M20.2471 23.314C22.6006 26.023 19.6299 28.4585 19.6299 28.4585C19.6299 28.4585 25.6022 25.3761 22.86 21.5144C20.2979 17.9148 18.3338 16.1269 28.9674 9.95972C28.9674 9.96011 12.2756 14.1277 20.2471 23.314Z" fill="#EA2D2E"/>
<path d="M32.8725 41.6571C32.8725 41.6571 34.251 42.7938 31.3538 43.6723C25.8452 45.3411 8.42175 45.8442 3.58269 43.7391C1.84402 42.9821 5.10573 41.9325 6.13191 41.711C7.20183 41.4794 7.81277 41.5216 7.81277 41.5216C5.878 40.1594 -4.69231 44.1973 2.44441 45.3555C21.9057 48.5102 37.9198 43.9348 32.8725 41.6571ZM12.4776 26.8387C12.4776 26.8387 3.61589 28.9438 9.33972 29.7091C11.7569 30.0325 16.5733 29.9583 21.0628 29.5817C24.7307 29.2735 28.4116 28.6153 28.4116 28.6153C28.4116 28.6153 27.1194 29.1696 26.1835 29.8079C17.1827 32.1755 -0.200905 31.0727 4.80417 28.6524C9.03542 26.6059 12.4776 26.8387 12.4776 26.8387ZM28.3749 35.7243C37.5237 30.9716 33.2932 26.404 30.3405 27.0192C29.6186 27.1696 29.2948 27.3005 29.2948 27.3005C29.2948 27.3005 29.5635 26.879 30.076 26.6977C35.9171 24.645 40.4085 32.7536 28.1921 35.9653C28.1921 35.9653 28.3323 35.8376 28.3749 35.7243Z" fill="#0074BD"/>
<path d="M22.86 0C22.86 0 27.9257 5.06875 18.0542 12.8605C10.1378 19.1129 16.2491 22.677 18.0514 26.7508C13.43 22.5816 10.0401 18.9109 12.3139 15.4949C15.653 10.4816 24.9034 8.05 22.86 0Z" fill="#EA2D2E"/>
<path d="M13.3768 48.6071C22.1564 49.1684 35.6424 48.2946 35.9615 44.1399C35.9615 44.1399 35.3479 45.7149 28.7049 46.9645C21.2104 48.3754 11.965 48.211 6.4834 47.3059C6.4834 47.3063 7.60644 48.236 13.3768 48.6071Z" fill="#0074BD"/>
</svg>
