<svg width="46" height="46" viewBox="0 0 46 46" fill="none" xmlns="http://www.w3.org/2000/svg">
<path d="M20.7646 41.5834H17.8437C10.375 41.5834 6.64167 41.5834 4.32083 39.2188C2 36.8542 2 33.048 2 25.4376C2 17.8272 2 14.0209 4.32083 11.6563C6.64167 9.29175 10.375 9.29175 17.8437 9.29175H25.7667C33.2354 9.29175 36.9708 9.29175 39.2917 11.6563C41.0771 13.4751 41.4875 16.148 41.5833 20.7501" stroke="#F24E1E" stroke-width="3.125" stroke-linecap="round" stroke-linejoin="round"/>
<path d="M39.5355 39.5479L43.6667 43.6667M31.1667 9.29167L30.9584 8.64583C29.9272 5.4375 29.4126 3.83333 28.1855 2.91667C26.9563 2 25.3272 2 22.0626 2H21.5147C18.2542 2 16.623 2 15.3959 2.91667C14.1667 3.83333 13.6522 5.4375 12.6209 8.64583L12.4167 9.29167M41.6938 34.3458C41.7103 33.3706 41.5324 32.4019 41.1705 31.4961C40.8087 30.5904 40.2701 29.7657 39.5863 29.0703C38.9024 28.3748 38.087 27.8225 37.1874 27.4454C36.2879 27.0684 35.3223 26.8742 34.347 26.8742C33.3716 26.8742 32.406 27.0684 31.5065 27.4454C30.6069 27.8225 29.7915 28.3748 29.1076 29.0703C28.4238 29.7657 27.8852 30.5904 27.5234 31.4961C27.1616 32.4019 26.9837 33.3706 27.0001 34.3458C27.0325 36.2729 27.8208 38.1101 29.1951 39.4614C30.5694 40.8128 32.4196 41.57 34.347 41.57C36.2743 41.57 38.1245 40.8128 39.4988 39.4614C40.8731 38.1101 41.6614 36.2729 41.6938 34.3458Z" stroke="#F24E1E" stroke-width="3.125" stroke-linecap="round" stroke-linejoin="round"/>
</svg>
